<svg width="65" height="66" viewBox="0 0 65 66" fill="none" xmlns="http://www.w3.org/2000/svg">
<path d="M30.0163 57.0086C26.8932 57.3158 24.9775 55.906 23.4825 52.8524C18.5323 42.7083 14.7869 31.9783 10.9006 21.4021C12.0791 22.4952 13.8423 22.4104 15.6316 21.921L15.6573 22.0148C15.6319 22.0184 15.6075 22.0274 15.5858 22.0412C15.564 22.0551 15.5454 22.0735 15.5311 22.0951C15.5168 22.1167 15.5072 22.1412 15.5029 22.1668C15.4986 22.1924 15.4997 22.2185 15.5061 22.2436C18.0123 34.5947 23.3056 46.466 30.0163 57.0086Z" fill="#6AA742"/>
<path d="M41.6404 10.7313C46.5719 22.2934 50.5091 34.2458 54.9542 46.035C50.2932 49.3067 45.269 52.0058 39.9885 54.0748C37.0998 55.2512 34.1207 56.1788 31.0831 56.848L31.0093 56.8597C24.2553 45.9756 19.5876 34.4846 15.9467 22.1795C15.9299 22.1277 15.8953 22.0839 15.8492 22.0559C15.8031 22.0279 15.7485 22.0177 15.6952 22.0269L15.6696 21.9332C17.8066 21.3428 20.0092 20.1612 21.446 19.5935C28.2549 16.8686 34.9863 13.9145 41.6404 10.7313ZM51.141 44.9515C51.2608 44.8877 51.3516 44.7789 51.3938 44.6487C51.436 44.5186 51.4262 44.3773 51.3665 44.2555L48.5801 38.4704C48.5153 38.3494 48.407 38.2585 48.2774 38.2166C48.1478 38.1747 48.0067 38.1849 47.8832 38.2451C42.8083 40.9469 37.2689 44.8228 31.6197 46.0788C31.5389 46.0938 31.4631 46.1294 31.3994 46.1824C31.3357 46.2353 31.2862 46.3037 31.2557 46.3811L31.2134 46.339C31.0121 46.0745 30.6546 46.4003 30.8284 46.663C31.9478 48.3914 32.8402 50.2617 33.4833 52.2275C33.537 52.3327 33.6295 52.4118 33.7409 52.4479C33.8523 52.4839 33.9737 52.4739 34.0788 52.4201C39.813 50.0382 45.4705 47.4607 51.141 44.9515ZM51.6682 47.4927C51.9798 47.3087 51.7503 46.8074 51.4324 46.9893C50.5671 47.4998 49.6913 48.0424 48.8577 48.5845C48.6199 48.7354 48.7899 49.1179 49.0362 48.984C49.9227 48.4946 50.8071 48.0117 51.6682 47.4927ZM51.0117 46.7109C51.0759 46.6788 51.1252 46.6223 51.1487 46.5538C51.1723 46.4853 51.1681 46.4104 51.1371 46.3456C51.1061 46.2808 51.0509 46.2315 50.9835 46.2084C50.9162 46.1853 50.8423 46.1903 50.7781 46.2224C49.4514 46.813 48.1634 47.4904 46.9223 48.2505C46.6486 48.4041 46.8461 48.8311 47.1284 48.6945C48.4622 48.1171 49.7592 47.4546 51.0117 46.7109ZM22.8046 22.8735C23.1459 22.7276 22.8997 22.2564 22.5709 22.3637C21.2371 22.8081 19.9333 23.3974 18.6378 23.9396C18.3955 24.0393 18.5674 24.3725 18.7971 24.2902C20.1351 23.8329 21.5007 23.4201 22.8046 22.8735ZM21.5299 21.3863C21.8985 21.2207 21.6374 20.7091 21.2729 20.8404C19.7328 21.4246 18.2396 22.1663 16.7272 22.8377C16.4892 22.9458 16.6676 23.3025 16.9077 23.2093C18.4457 22.6102 20.0197 22.0726 21.5299 21.3863Z" fill="#6AA742"/>
<path d="M48.7811 41.2409C49.3129 41.954 50.0027 43.2592 49.6952 44.0568C49.1891 45.4025 45.9661 46.126 44.6412 46.6942C42.6148 47.591 40.5898 48.4907 38.5663 49.3931C37.5955 49.9357 36.5779 50.3861 35.5268 50.7383C34.1608 51.0441 34.317 51.059 33.501 49.8625C32.8862 48.9518 32.3917 48.0158 31.8065 47.1004C35.2913 46.4545 38.3374 44.5276 41.4329 42.8588C43.0312 42.0087 44.8741 40.5115 46.6025 40.0808C48.1496 39.7125 47.9739 40.1683 48.7811 41.2409ZM46.1874 44.1257C46.6298 43.927 46.3048 43.2453 45.8688 43.446C42.3975 45.0005 38.7186 46.2884 35.3726 48.0827C35.2209 48.1618 35.2619 48.4242 35.4685 48.3914C39.1317 47.4757 42.7351 45.6863 46.1874 44.1257Z" fill="#F5F5F5"/>
<path d="M35.7714 7.97906C36.0098 9.94283 37.8385 10.5199 39.5766 10.4911C35.6316 12.3409 31.676 14.1587 27.6758 15.8981C25.4486 16.8533 23.2149 17.7923 20.9749 18.7149C18.5606 19.6856 14.0699 22.3556 11.3713 20.8778C11.3427 20.8429 11.3055 20.8161 11.2635 20.8003L11.1748 20.7716C11.0487 20.6907 10.928 20.6017 10.8132 20.5052C9.99334 19.4284 14.1551 17.428 14.2708 17.3515C15.3848 16.7649 16.5116 16.2037 17.6235 15.6448C19.6896 14.6256 21.7642 13.6661 23.8918 12.7593C27.8141 11.0659 31.8299 9.60215 35.7714 7.97906ZM36.1684 10.7061C36.2553 10.6643 36.3226 10.5894 36.3555 10.4979C36.3884 10.4065 36.3843 10.3058 36.344 10.2182C36.3037 10.1306 36.2306 10.0632 36.1407 10.0308C36.0508 9.99836 35.9515 10.0036 35.8646 10.0454C29.0948 13.0962 22.3443 16.2387 15.6043 19.3704C15.3958 19.4738 15.5529 19.788 15.7678 19.708C22.7201 17.0829 29.5303 14.0778 36.1684 10.7061ZM34.5639 10.3011C34.9241 10.1399 34.6628 9.58559 34.309 9.74882C27.4806 12.9373 20.5776 15.9237 13.7258 19.0335C13.5699 19.1041 13.6824 19.3184 13.8278 19.2587C20.837 16.5273 27.7227 13.4428 34.5639 10.3011Z" fill="#F5F5F5"/>
<path d="M55.8303 45.5779C56.2228 45.6194 56.5324 46.1325 56.1346 46.3883C50.6052 50.3374 44.5678 53.4915 38.1969 55.7595C34.4189 57.0724 28.4584 59.8936 24.9908 56.7504C23.2834 55.2158 22.4194 52.8931 21.5268 50.8316C20.0517 47.4357 18.5914 44.0231 17.1459 40.5939C14.4945 34.1762 11.8428 27.6729 10.0658 20.9328C9.84829 20.7303 9.6956 20.4663 9.62706 20.1742C9.55852 19.8821 9.57721 19.575 9.68076 19.2918C10.2375 17.2933 13.9548 16.1459 15.4521 15.3913C22.3113 11.9137 29.5632 8.56313 37.1095 6.87405C37.1658 6.86583 37.223 6.87812 37.2709 6.90874C37.3188 6.93937 37.3542 6.98635 37.3708 7.04129C37.3874 7.09624 37.3842 7.1556 37.3618 7.2088C37.3393 7.262 37.299 7.30558 37.2481 7.33179C37.0164 7.44198 36.772 7.52669 36.536 7.62839C36.5571 7.66821 36.5715 7.71135 36.5786 7.75608C36.8834 9.99047 39.4203 9.78565 41.0509 9.76471L41.4721 9.56631C41.5765 9.51976 41.6923 9.50717 41.8034 9.53031C41.9145 9.55345 42.0153 9.61117 42.0919 9.69543C42.1685 9.77969 42.217 9.88633 42.2307 10.0005C42.2445 10.1147 42.2228 10.2308 42.1686 10.3326L42.213 10.347C48.054 21.3488 51.8136 33.8276 55.8303 45.5779ZM54.9879 46.0175C50.5366 34.2476 46.5804 22.289 41.6741 10.7138C35.0412 13.9038 28.2992 16.8544 21.4481 19.5657C20.0113 20.1335 17.8087 21.315 15.6716 21.9054C13.876 22.3927 12.1169 22.4647 10.9406 21.3865C14.8269 31.9627 18.5661 42.712 23.5225 52.8368C25.0175 55.8904 26.9332 57.3002 30.0563 56.993C23.3456 46.4504 18.046 34.5985 15.5525 22.23C15.546 22.205 15.5449 22.1788 15.5492 22.1532C15.5535 22.1276 15.5631 22.1032 15.5774 22.0816C15.5917 22.0599 15.6104 22.0415 15.6321 22.0277C15.6539 22.0138 15.6783 22.0048 15.7036 22.0012C15.7569 21.9919 15.8115 22.0022 15.8576 22.0302C15.9037 22.0581 15.9383 22.1019 15.9551 22.1537C19.6594 34.4794 24.2954 45.9601 31.0494 56.8442L31.1232 56.8325C34.1608 56.1634 37.1399 55.2357 40.0286 54.0593C45.2946 51.9923 50.3051 49.2985 54.9542 46.0351L54.9879 46.0175ZM39.6103 10.4736C37.8722 10.5025 36.0436 9.92539 35.8051 7.96161C31.8637 9.58471 27.8562 11.0227 23.9466 12.7202C21.8317 13.6311 19.7443 14.5865 17.6783 15.6057C16.5537 16.1604 15.4269 16.7216 14.3256 17.3124C14.2161 17.3695 10.0544 19.3699 10.868 20.466C10.9827 20.5625 11.1035 20.6515 11.2296 20.7324L11.3183 20.7611C11.3603 20.777 11.3975 20.8038 11.4261 20.8387C14.1247 22.3165 18.6407 19.6547 21.0297 18.6758C23.2641 17.7561 25.4977 16.8171 27.7306 15.859C31.6761 14.1588 35.6317 12.341 39.5766 10.4912L39.6103 10.4736Z" fill="#222221"/>
<path d="M51.3792 44.2595C51.4389 44.3813 51.4487 44.5225 51.4065 44.6527C51.3643 44.7829 51.2735 44.8916 51.1537 44.9554C45.4832 47.4647 39.832 50.0442 34.0978 52.4047C33.9926 52.4586 33.8712 52.4685 33.7598 52.4325C33.6484 52.3965 33.5559 52.3173 33.5023 52.2122C32.8592 50.2464 31.9668 48.376 30.8474 46.6476C30.6735 46.385 31.0374 46.0612 31.2323 46.3236C31.2323 46.3236 31.2599 46.3681 31.2811 46.3892C31.3116 46.3118 31.361 46.2434 31.4247 46.1904C31.4884 46.1375 31.5643 46.1019 31.645 46.0868C37.2942 44.8309 42.8083 40.9468 47.9086 38.2532C48.0321 38.193 48.1732 38.1828 48.3028 38.2247C48.4324 38.2666 48.5407 38.3574 48.6055 38.4785L51.3792 44.2595ZM49.6952 44.0566C50.0027 43.259 49.3129 41.9538 48.7811 41.2407C47.9739 40.1681 48.1496 39.7123 46.6173 40.0996C44.889 40.5303 43.046 42.0275 41.4477 42.8776C38.3522 44.5465 35.3061 46.4734 31.8213 47.1192C32.4107 48.0218 32.8969 48.9835 33.5158 49.8813C34.336 51.065 34.1757 51.063 35.5416 50.7571C36.5928 50.4049 37.6103 49.9546 38.5811 49.4119C40.6047 48.5095 42.6296 47.6099 44.656 46.7131C45.9788 46.1299 49.1891 45.4023 49.6952 44.0566Z" fill="#222221"/>
<path d="M51.4324 46.9895C51.7503 46.8075 51.9798 47.3089 51.6682 47.4929C50.8008 48.0098 49.9417 48.5009 49.0363 48.9841C48.7899 49.118 48.6199 48.7356 48.8578 48.5847C49.7103 48.0488 50.5671 47.4999 51.4324 46.9895Z" fill="#222221"/>
<path d="M50.7676 46.2545C50.8319 46.2224 50.9058 46.2174 50.9731 46.2405C51.0404 46.2636 51.0957 46.313 51.1266 46.3777C51.1576 46.4425 51.1618 46.5174 51.1383 46.5859C51.1148 46.6544 51.0655 46.7109 51.0013 46.743C49.7488 47.4867 48.4517 48.1492 47.1179 48.7266C46.8357 48.8632 46.6381 48.4362 46.9119 48.2827C48.153 47.5226 49.441 46.8451 50.7676 46.2545Z" fill="#222221"/>
<path d="M45.8687 43.4459C46.3047 43.2451 46.6297 43.9269 46.1874 44.1256C42.7351 45.6862 39.1316 47.4755 35.439 48.4173C35.2577 48.4583 35.1914 48.1877 35.343 48.1086C38.7185 46.2882 42.4058 44.9745 45.8687 43.4459Z" fill="#222221"/>
<path d="M35.8646 10.0456C35.9515 10.0039 36.0508 9.99859 36.1407 10.031C36.2306 10.0634 36.3037 10.1308 36.344 10.2184C36.3843 10.3061 36.3884 10.4067 36.3555 10.4982C36.3226 10.5897 36.2553 10.6645 36.1684 10.7063C29.5261 14.0771 22.7116 17.0808 15.7551 19.7042C15.5402 19.7842 15.3831 19.4699 15.5916 19.3665C22.3443 16.2389 29.0948 13.0965 35.8646 10.0456Z" fill="#222221"/>
<path d="M34.309 9.74887C34.6628 9.58563 34.9241 10.14 34.5639 10.3012C27.7227 13.4428 20.8328 16.5402 13.8277 19.2587C13.6824 19.3185 13.5699 19.1041 13.7258 19.0335C20.5776 15.9238 27.4805 12.9374 34.309 9.74887Z" fill="#222221"/>
<path d="M22.5709 22.3636C22.8996 22.2563 23.1522 22.7295 22.8046 22.8734C21.5006 23.42 20.1351 23.8328 18.7971 24.2901C18.5674 24.3724 18.3954 24.0392 18.6377 23.9395C19.9332 23.3973 21.2371 22.808 22.5709 22.3636Z" fill="#222221"/>
<path d="M21.2792 20.8424C21.6458 20.7046 21.9049 21.2227 21.5363 21.3883C20.026 22.0746 18.452 22.6122 16.9141 23.2113C16.6739 23.3045 16.4956 22.9478 16.7336 22.8397C18.2396 22.1662 19.7328 21.4245 21.2792 20.8424Z" fill="#222221"/>
</svg>
