<svg width="57" height="69" viewBox="0 0 57 69" fill="none" xmlns="http://www.w3.org/2000/svg">
<path d="M0.713361 57.5171C0.254801 60.2855 10.8471 66.6383 13.1709 68.1426C20.8949 58.5268 29.4363 49.4588 37.7406 40.3391C45.9271 31.3339 54.2434 22.4424 62.8006 13.7998C62.7865 13.7749 62.7775 13.7473 62.7741 13.7189C62.7708 13.6904 62.7732 13.6615 62.7811 13.634C62.7891 13.6064 62.8024 13.5808 62.8204 13.5584C62.8385 13.5361 62.8607 13.5176 62.886 13.504C66.2856 11.6186 59.2168 6.56168 58.0575 5.63529C55.8016 3.83164 53.4235 2.21805 51.077 0.538043C49.5099 2.5069 47.9211 4.45681 46.3245 6.40881C46.3714 6.37889 46.4251 6.36141 46.4805 6.35799C46.536 6.35457 46.5914 6.36534 46.6416 6.38928C47.1306 6.62348 47.6032 6.89063 48.056 7.18891C48.5178 7.4608 49.0239 7.71249 49.4458 8.01998C49.5016 8.05203 49.5423 8.10492 49.5591 8.16703C49.5759 8.22914 49.5673 8.29537 49.5353 8.35116C49.5032 8.40694 49.4503 8.44773 49.3882 8.46451C49.3261 8.48129 49.2599 8.47269 49.2041 8.44064C48.712 8.20997 48.2466 7.95557 47.7503 7.7095C47.2594 7.48782 46.7828 7.23569 46.3233 6.95461C46.2668 6.91191 46.2262 6.85167 46.2077 6.78335C46.1893 6.71504 46.194 6.64253 46.2213 6.57722C45.4156 7.57174 44.5961 8.54524 43.7806 9.53414C44.7662 9.97036 45.7266 10.4613 46.6573 11.0048C47.0444 11.2142 46.7113 11.8166 46.3144 11.6015C45.3416 11.2072 44.3923 10.7573 43.471 10.2541C43.4017 10.2092 43.3509 10.1407 43.3281 10.0614C42.5919 10.9462 41.844 11.8177 41.1058 12.6948C41.5993 12.9003 42.0841 13.2569 42.5139 13.4714C42.9437 13.6858 43.5603 13.949 44.0867 14.1538C44.4279 14.2848 44.2657 14.8162 43.9405 14.714C42.7579 14.466 41.6388 13.978 40.6524 13.2801C39.7899 14.3396 38.9031 15.3396 38.0302 16.3605C38.9134 16.907 39.7867 17.4478 40.6587 18.0139C40.7165 18.0518 40.7577 18.1104 40.7738 18.1777C40.7899 18.245 40.7796 18.3159 40.7451 18.3759C40.7107 18.4359 40.6546 18.4804 40.5884 18.5004C40.5221 18.5204 40.4508 18.5144 40.3889 18.4835C39.4397 18.0292 38.5536 17.5331 37.6367 17.0453C37.5924 17.0223 37.553 16.9908 37.5208 16.9527L34.3836 20.635C34.9208 20.7657 35.4237 21.0103 35.8583 21.3522C36.3635 21.6796 36.8134 22.0853 37.1913 22.554C37.3817 22.8001 36.9899 23.0629 36.7735 22.8735C36.3693 22.5012 35.9329 22.1656 35.4694 21.8705C35.025 21.6021 34.4886 21.4826 34.0555 21.1947C34.0047 21.159 33.9654 21.1093 33.9424 21.0517C33.092 22.0335 32.2375 22.9999 31.4235 23.9636C32.3789 24.441 33.2844 25.0393 34.1963 25.5698C34.4702 25.7272 34.232 26.1304 33.9469 25.9925C32.9894 25.5075 31.8974 25.0753 30.931 24.5265L27.9505 27.902C28.7402 28.3167 29.4989 28.8307 30.2662 29.2845C30.324 29.3225 30.3652 29.3811 30.3813 29.4483C30.3974 29.5156 30.3871 29.5865 30.3527 29.6465C30.3182 29.7065 30.2621 29.751 30.1959 29.7711C30.1297 29.7911 30.0583 29.785 29.9964 29.7541C29.1675 29.3169 28.2833 28.9195 27.4902 28.4313L24.8845 31.3584C25.768 31.7553 26.5613 32.3284 27.2156 33.0426C27.2577 33.0961 27.2789 33.1631 27.2751 33.231C27.2714 33.299 27.2429 33.3633 27.1951 33.4117C27.1473 33.4602 27.0834 33.4895 27.0155 33.4941C26.9476 33.4988 26.8803 33.4785 26.8263 33.4371C26.0941 32.8074 25.265 32.3002 24.3709 31.9352C23.5164 32.9016 22.6479 33.847 21.7856 34.8155C22.6955 35.0974 23.4928 35.6602 24.063 36.4233C24.2813 36.7114 23.8194 37.0511 23.5806 36.8098C22.9827 36.2045 22.2508 35.7483 21.444 35.4781C21.382 35.4579 21.3266 35.4215 21.2833 35.3727L18.3108 38.6552C19.2286 38.9086 20.0465 39.4376 20.6541 40.1707C20.6799 40.1958 20.7004 40.2257 20.7147 40.2587C20.7289 40.2917 20.7364 40.3272 20.7369 40.3631C20.7374 40.399 20.7309 40.4347 20.7176 40.4681C20.7043 40.5015 20.6845 40.5319 20.6595 40.5577C20.6344 40.5835 20.6046 40.6041 20.5715 40.6183C20.5385 40.6325 20.5031 40.6401 20.4671 40.6406C20.4312 40.6411 20.3955 40.6345 20.3621 40.6212C20.3287 40.6079 20.2983 40.5882 20.2725 40.5631C19.9286 40.2386 19.5448 39.959 19.1304 39.7312C18.7258 39.5182 18.2824 39.4066 17.8748 39.244L17.8644 39.2055L15.4987 41.8282C15.7481 42.017 15.9841 42.2176 16.2237 42.4008C16.7029 42.7672 17.1799 43.1259 17.6514 43.4944C17.8833 43.6797 17.5829 44.0666 17.3418 43.9086C16.8458 43.5716 16.3302 43.2233 15.865 42.8779C15.6059 42.6835 15.3201 42.5128 15.0532 42.3204L12.3613 45.2957C12.5988 45.4712 12.8215 45.6837 13.0339 45.8577C13.4466 46.1925 13.8517 46.5293 14.2588 46.8738C14.5165 47.0935 14.1767 47.5489 13.9001 47.3509C13.4628 47.0476 13.045 46.7555 12.6148 46.4172C12.3491 46.2464 12.0924 46.062 11.8457 45.8647L8.61147 49.4328C8.66003 49.3868 8.72307 49.3593 8.78975 49.3548C8.85644 49.3504 8.92258 49.3693 8.9768 49.4084C9.77796 50.0184 10.5252 50.6429 11.2733 51.2094C11.5268 51.4136 11.1983 51.8494 10.9335 51.6648C10.1449 51.101 9.32954 50.561 8.56335 49.9581C8.53035 49.9307 8.50338 49.8967 8.48413 49.8584C8.46489 49.82 8.45378 49.7781 8.45151 49.7353C8.44925 49.6924 8.45587 49.6495 8.47097 49.6094C8.48606 49.5692 8.50931 49.5326 8.53924 49.5019C7.56498 50.586 6.58607 51.6632 5.60251 52.7333C6.72782 53.4795 7.80818 54.2914 8.83796 55.1648C9.11104 55.3803 8.75797 55.8476 8.46595 55.6538C7.29179 54.9249 6.16249 54.1261 5.08416 53.2618L1.41363 57.2948C1.34125 57.4078 1.23159 57.4919 1.10367 57.5325C0.975757 57.5731 0.837664 57.5676 0.713361 57.5171ZM12.528 63.928C12.4635 63.9936 12.3756 64.0309 12.2837 64.0318C12.1917 64.0326 12.1031 63.9968 12.0375 63.9324C11.9718 63.8679 11.9345 63.78 11.9337 63.688C11.9328 63.596 11.9686 63.5075 12.033 63.4419C12.7034 62.7199 13.4291 62.0513 14.2034 61.4422C14.2492 61.4089 14.3053 61.3929 14.3617 61.3971C14.4182 61.4012 14.4713 61.4252 14.5118 61.4648C14.5522 61.5044 14.5773 61.5571 14.5825 61.6134C14.5878 61.6698 14.573 61.7262 14.5406 61.7726C13.9283 62.5436 13.2553 63.2644 12.528 63.928ZM13.9501 64.7255C13.8845 64.7799 13.8011 64.8079 13.716 64.8041C13.6309 64.8004 13.5503 64.7651 13.4897 64.7051C13.4292 64.6452 13.3932 64.5649 13.3886 64.4799C13.384 64.3949 13.4112 64.3111 13.4649 64.245C14.5867 63.1133 15.6104 61.8884 16.5251 60.5835C16.5571 60.5277 16.61 60.487 16.6721 60.4702C16.7343 60.4534 16.8005 60.462 16.8563 60.494C16.9121 60.5261 16.9528 60.579 16.9696 60.6411C16.9864 60.7032 16.9778 60.7694 16.9458 60.8252C16.2029 62.3031 15.1863 63.6266 13.9501 64.7255ZM51.8882 6.07908C51.6607 6.42981 51.066 6.09463 51.3306 5.75868L52.425 4.27292C52.6307 3.99421 53.0961 4.2486 52.8967 4.55042L51.8882 6.07908ZM53.0247 7.22651C52.8007 7.55976 52.2843 7.26956 52.4866 6.91737C52.9744 6.05367 53.6801 5.33296 54.5334 4.82717C54.7709 4.69688 55.0598 5.03205 54.8389 5.22396C54.1435 5.8002 53.535 6.47399 53.0324 7.22443L53.0247 7.22651ZM57.284 10.4806C56.5872 10.5659 55.8843 10.3802 55.3206 9.96182C54.7568 9.54347 54.3755 8.92449 54.2553 8.23286C54.2237 7.93271 54.2653 7.62936 54.3766 7.34884C54.488 7.06832 54.6656 6.81897 54.8944 6.62216C54.9195 6.57214 54.9576 6.52983 55.0047 6.49964C55.0518 6.46946 55.1062 6.45253 55.1621 6.45066C55.3701 6.33399 55.6056 6.27527 55.844 6.28063C56.0823 6.28599 56.3149 6.35525 56.5174 6.48115C56.9621 6.50115 57.3937 6.63776 57.7688 6.87729C58.144 7.11682 58.4495 7.45081 58.6547 7.84577C58.7994 8.10199 58.8779 8.39021 58.8832 8.68439C58.8885 8.97856 58.8205 9.26944 58.6852 9.53072C58.5499 9.79201 58.3517 10.0155 58.1084 10.1809C57.8651 10.3464 57.5844 10.4487 57.2917 10.4785L57.284 10.4806Z" fill="#A4CED4"/>
</svg>
